REM DIRINDEX 1\2\4\18,1\2\4\19,1\2\5\20,1\2\5\21,1\2\6\22,1\2\6\23,1\2\7\24,1\2\7\25,1\2\8\26,1\2\8\27,1\2\9\28,1\2\9\29,1\2\10\30,1\3\11\31,1\3\11\32,1\3\11\33,1\3\11\34,1\3\11\35,1\3\12\36,1\3\12\37,1\3\12\38,1\3\12\39,1\3\12\40,1\3\13\41,1\3\13\42,1\3\13\43,1\3\13\44,1\3\13\45,1\3\14\46,1\3\14\47,1\3\14\48,1\3\14\49,1\3\15\50,1\3\15\51,1\3\15\52,1\3\15\53,1\3\15\54,1\3\16\55,1\3\16\56,1\3\16\57,1\3\16\58,1\3\16\59,1\3\17\60,1\3\17\61
REM DIRNAME "folder01","folder02","folder03","folder04","folder05","folder06","folder07","folder08","folder09","folder10","folder11","folder12","folder13","folder14","folder15","folder16","folder17","folder18","folder19","folder20","folder21","folder22","folder23","folder24","folder25","folder26","folder27","folder28","folder29","folder30","folder31","folder32","folder33","folder34","folder35","folder36","folder37","folder38","folder39","folder40","folder41","folder42","folder43","folder44","folder45","folder46","folder47","folder48","folder49","folder50","folder51","folder52","folder53","folder54","folder55","folder56","folder57","folder58","folder59","folder60","folder61"
TITLE ""
FILE "TOEIC LR Kinnojyukugo_07.mp3" MP3
  TRACK 01 AUDIO
    TITLE "0:"
    INDEX 01 00:00:00
  TRACK 02 AUDIO
    TITLE "18:cjc160_0733"
    INDEX 01 00:00:12
  TRACK 03 AUDIO
    TITLE "0:"
    INDEX 01 00:01:35
  TRACK 04 AUDIO
    TITLE "19:cjc160_0734"
    INDEX 01 00:01:72
  TRACK 05 AUDIO
    TITLE "0:"
    INDEX 01 00:03:71
  TRACK 06 AUDIO
    TITLE "18:cjc160_0735"
    INDEX 01 00:04:71
  TRACK 07 AUDIO
    TITLE "0:"
    INDEX 01 00:06:17
  TRACK 08 AUDIO
    TITLE "19:cjc160_0736"
    INDEX 01 00:06:56
  TRACK 09 AUDIO
    TITLE "0:"
    INDEX 01 00:09:07
  TRACK 10 AUDIO
    TITLE "18:cjc160_0737"
    INDEX 01 00:10:09
  TRACK 11 AUDIO
    TITLE "0:"
    INDEX 01 00:11:24
  TRACK 12 AUDIO
    TITLE "19:cjc160_0738"
    INDEX 01 00:11:59
  TRACK 13 AUDIO
    TITLE "0:"
    INDEX 01 00:14:46
  TRACK 14 AUDIO
    TITLE "18:cjc160_0739"
    INDEX 01 00:15:47
  TRACK 15 AUDIO
    TITLE "0:"
    INDEX 01 00:16:58
  TRACK 16 AUDIO
    TITLE "19:cjc160_0740"
    INDEX 01 00:17:24
  TRACK 17 AUDIO
    TITLE "0:"
    INDEX 01 00:18:71
  TRACK 18 AUDIO
    TITLE "18:cjc160_0741"
    INDEX 01 00:19:72
  TRACK 19 AUDIO
    TITLE "0:"
    INDEX 01 00:21:10
  TRACK 20 AUDIO
    TITLE "19:cjc160_0742"
    INDEX 01 00:21:50
  TRACK 21 AUDIO
    TITLE "0:"
    INDEX 01 00:23:47
  TRACK 22 AUDIO
    TITLE "18:cjc160_0743"
    INDEX 01 00:24:50
  TRACK 23 AUDIO
    TITLE "0:"
    INDEX 01 00:26:12
  TRACK 24 AUDIO
    TITLE "19:cjc160_0744"
    INDEX 01 00:26:51
  TRACK 25 AUDIO
    TITLE "0:"
    INDEX 01 00:28:54
  TRACK 26 AUDIO
    TITLE "18:cjc160_0745"
    INDEX 01 00:29:55
  TRACK 27 AUDIO
    TITLE "0:"
    INDEX 01 00:31:03
  TRACK 28 AUDIO
    TITLE "19:cjc160_0746"
    INDEX 01 00:31:46
  TRACK 29 AUDIO
    TITLE "0:"
    INDEX 01 00:34:11
  TRACK 30 AUDIO
    TITLE "18:cjc160_0747"
    INDEX 01 00:35:15
  TRACK 31 AUDIO
    TITLE "0:"
    INDEX 01 00:36:30
  TRACK 32 AUDIO
    TITLE "19:cjc160_0748"
    INDEX 01 00:36:67
  TRACK 33 AUDIO
    TITLE "0:"
    INDEX 01 00:38:74
  TRACK 34 AUDIO
    TITLE "18:cjc160_0749"
    INDEX 01 00:39:75
  TRACK 35 AUDIO
    TITLE "0:"
    INDEX 01 00:41:39
  TRACK 36 AUDIO
    TITLE "19:cjc160_0750"
    INDEX 01 00:41:74
  TRACK 37 AUDIO
    TITLE "0:"
    INDEX 01 00:44:23
  TRACK 38 AUDIO
    TITLE "18:cjc160_0751"
    INDEX 01 00:45:25
  TRACK 39 AUDIO
    TITLE "0:"
    INDEX 01 00:46:63
  TRACK 40 AUDIO
    TITLE "19:cjc160_0752"
    INDEX 01 00:47:27
  TRACK 41 AUDIO
    TITLE "0:"
    INDEX 01 00:49:26
  TRACK 42 AUDIO
    TITLE "18:cjc160_0753"
    INDEX 01 00:50:30
  TRACK 43 AUDIO
    TITLE "0:"
    INDEX 01 00:51:45
  TRACK 44 AUDIO
    TITLE "19:cjc160_0754"
    INDEX 01 00:52:09
  TRACK 45 AUDIO
    TITLE "0:"
    INDEX 01 00:54:26
  TRACK 46 AUDIO
    TITLE "18:cjc160_0755"
    INDEX 01 00:55:25
  TRACK 47 AUDIO
    TITLE "0:"
    INDEX 01 00:56:34
  TRACK 48 AUDIO
    TITLE "19:cjc160_0756"
    INDEX 01 00:56:73
  TRACK 49 AUDIO
    TITLE "0:"
    INDEX 01 00:58:45
  TRACK 50 AUDIO
    TITLE "18:cjc160_0757"
    INDEX 01 00:59:46
  TRACK 51 AUDIO
    TITLE "0:"
    INDEX 01 01:01:28
  TRACK 52 AUDIO
    TITLE "19:cjc160_0758"
    INDEX 01 01:01:67
  TRACK 53 AUDIO
    TITLE "0:"
    INDEX 01 01:04:61
  TRACK 54 AUDIO
    TITLE "18:cjc160_0759"
    INDEX 01 01:05:61
  TRACK 55 AUDIO
    TITLE "0:"
    INDEX 01 01:07:20
  TRACK 56 AUDIO
    TITLE "19:cjc160_0760"
    INDEX 01 01:07:58
  TRACK 57 AUDIO
    TITLE "0:"
    INDEX 01 01:09:68
  TRACK 58 AUDIO
    TITLE "18:cjc160_0761"
    INDEX 01 01:10:68
  TRACK 59 AUDIO
    TITLE "0:"
    INDEX 01 01:12:04
  TRACK 60 AUDIO
    TITLE "19:cjc160_0762"
    INDEX 01 01:12:41
  TRACK 61 AUDIO
    TITLE "0:"
    INDEX 01 01:14:56
  TRACK 62 AUDIO
    TITLE "18:cjc160_0763"
    INDEX 01 01:15:57
  TRACK 63 AUDIO
    TITLE "0:"
    INDEX 01 01:17:01
  TRACK 64 AUDIO
    TITLE "19:cjc160_0764"
    INDEX 01 01:17:38
  TRACK 65 AUDIO
    TITLE "0:"
    INDEX 01 01:19:08
  TRACK 66 AUDIO
    TITLE "18:cjc160_0765"
    INDEX 01 01:20:07
  TRACK 67 AUDIO
    TITLE "0:"
    INDEX 01 01:21:30
  TRACK 68 AUDIO
    TITLE "19:cjc160_0766"
    INDEX 01 01:21:68
  TRACK 69 AUDIO
    TITLE "0:"
    INDEX 01 01:24:17
  TRACK 70 AUDIO
    TITLE "18:cjc160_0767"
    INDEX 01 01:25:16
  TRACK 71 AUDIO
    TITLE "0:"
    INDEX 01 01:26:43
  TRACK 72 AUDIO
    TITLE "19:cjc160_0768"
    INDEX 01 01:27:07
  TRACK 73 AUDIO
    TITLE "0:"
    INDEX 01 01:29:49
  TRACK 74 AUDIO
    TITLE "18:cjc160_0769"
    INDEX 01 01:30:47
  TRACK 75 AUDIO
    TITLE "0:"
    INDEX 01 01:32:22
  TRACK 76 AUDIO
    TITLE "19:cjc160_0770"
    INDEX 01 01:32:60
  TRACK 77 AUDIO
    TITLE "0:"
    INDEX 01 01:35:19
  TRACK 78 AUDIO
    TITLE "18:cjc160_0771"
    INDEX 01 01:36:24
  TRACK 79 AUDIO
    TITLE "0:"
    INDEX 01 01:37:61
  TRACK 80 AUDIO
    TITLE "19:cjc160_0772"
    INDEX 01 01:38:23
  TRACK 81 AUDIO
    TITLE "0:"
    INDEX 01 01:40:61
  TRACK 82 AUDIO
    TITLE "18:cjc160_0773"
    INDEX 01 01:41:60
  TRACK 83 AUDIO
    TITLE "0:"
    INDEX 01 01:43:26
  TRACK 84 AUDIO
    TITLE "19:cjc160_0774"
    INDEX 01 01:43:65
  TRACK 85 AUDIO
    TITLE "0:"
    INDEX 01 01:47:39
  TRACK 86 AUDIO
    TITLE "18:cjc160_0775"
    INDEX 01 01:48:41
  TRACK 87 AUDIO
    TITLE "0:"
    INDEX 01 01:49:58
  TRACK 88 AUDIO
    TITLE "19:cjc160_0776"
    INDEX 01 01:50:20
  TRACK 89 AUDIO
    TITLE "0:"
    INDEX 01 01:52:72
  TRACK 90 AUDIO
    TITLE "18:cjc160_0777"
    INDEX 01 01:53:73
  TRACK 91 AUDIO
    TITLE "0:"
    INDEX 01 01:55:14
  TRACK 92 AUDIO
    TITLE "19:cjc160_0778"
    INDEX 01 01:55:55
  TRACK 93 AUDIO
    TITLE "0:"
    INDEX 01 01:57:46
  TRACK 94 AUDIO
    TITLE "18:cjc160_0779"
    INDEX 01 01:58:47
  TRACK 95 AUDIO
    TITLE "0:"
    INDEX 01 02:00:36
  TRACK 96 AUDIO
    TITLE "19:cjc160_0780"
    INDEX 01 02:00:75
  TRACK 97 AUDIO
    TITLE "0:"
    INDEX 01 02:03:39
  TRACK 98 AUDIO
    TITLE "18:cjc160_0781"
    INDEX 01 02:04:40
  TRACK 99 AUDIO
    TITLE "0:"
    INDEX 01 02:05:49
  TRACK 100 AUDIO
    TITLE "19:cjc160_0782"
    INDEX 01 02:06:13
  TRACK 101 AUDIO
    TITLE "0:"
    INDEX 01 02:08:12
  TRACK 102 AUDIO
    TITLE "18:cjc160_0783"
    INDEX 01 02:09:14
  TRACK 103 AUDIO
    TITLE "0:"
    INDEX 01 02:10:68
  TRACK 104 AUDIO
    TITLE "19:cjc160_0784"
    INDEX 01 02:11:30
  TRACK 105 AUDIO
    TITLE "0:"
    INDEX 01 02:13:66
  TRACK 106 AUDIO
    TITLE "18:cjc160_0785"
    INDEX 01 02:14:66
  TRACK 107 AUDIO
    TITLE "0:"
    INDEX 01 02:15:53
  TRACK 108 AUDIO
    TITLE "19:cjc160_0786"
    INDEX 01 02:16:27
  TRACK 109 AUDIO
    TITLE "0:"
    INDEX 01 02:18:19
  TRACK 110 AUDIO
    TITLE "18:cjc160_0787"
    INDEX 01 02:19:18
  TRACK 111 AUDIO
    TITLE "0:"
    INDEX 01 02:20:43
  TRACK 112 AUDIO
    TITLE "19:cjc160_0788"
    INDEX 01 02:21:05
  TRACK 113 AUDIO
    TITLE "0:"
    INDEX 01 02:23:57
  TRACK 114 AUDIO
    TITLE "18:cjc160_0789"
    INDEX 01 02:24:54
  TRACK 115 AUDIO
    TITLE "0:"
    INDEX 01 02:26:08
  TRACK 116 AUDIO
    TITLE "19:cjc160_0790"
    INDEX 01 02:26:45
  TRACK 117 AUDIO
    TITLE "0:"
    INDEX 01 02:28:52
  TRACK 118 AUDIO
    TITLE "18:cjc160_0791"
    INDEX 01 02:29:54
  TRACK 119 AUDIO
    TITLE "0:"
    INDEX 01 02:31:11
  TRACK 120 AUDIO
    TITLE "19:cjc160_0792"
    INDEX 01 02:31:51
  TRACK 121 AUDIO
    TITLE "0:"
    INDEX 01 02:33:65
  TRACK 122 AUDIO
    TITLE "18:cjc160_0793"
    INDEX 01 02:34:66
  TRACK 123 AUDIO
    TITLE "0:"
    INDEX 01 02:36:26
  TRACK 124 AUDIO
    TITLE "19:cjc160_0794"
    INDEX 01 02:36:67
  TRACK 125 AUDIO
    TITLE "0:"
    INDEX 01 02:39:13
  TRACK 126 AUDIO
    TITLE "18:cjc160_0795"
    INDEX 01 02:40:14
  TRACK 127 AUDIO
    TITLE "0:"
    INDEX 01 02:42:07
  TRACK 128 AUDIO
    TITLE "19:cjc160_0796"
    INDEX 01 02:42:44
  TRACK 129 AUDIO
    TITLE "0:"
    INDEX 01 02:45:41
  TRACK 130 AUDIO
    TITLE "18:cjc160_0797"
    INDEX 01 02:46:48
  TRACK 131 AUDIO
    TITLE "0:"
    INDEX 01 02:47:61
  TRACK 132 AUDIO
    TITLE "19:cjc160_0798"
    INDEX 01 02:48:24
  TRACK 133 AUDIO
    TITLE "0:"
    INDEX 01 02:50:75
  TRACK 134 AUDIO
    TITLE "18:cjc160_0799"
    INDEX 01 02:52:08
  TRACK 135 AUDIO
    TITLE "0:"
    INDEX 01 02:53:42
  TRACK 136 AUDIO
    TITLE "19:cjc160_0800"
    INDEX 01 02:54:08
  TRACK 137 AUDIO
    TITLE "0:"
    INDEX 01 02:56:58
  TRACK 138 AUDIO
    TITLE "18:cjc160_0801"
    INDEX 01 02:57:68
  TRACK 139 AUDIO
    TITLE "0:"
    INDEX 01 03:00:03
  TRACK 140 AUDIO
    TITLE "19:cjc160_0802"
    INDEX 01 03:00:40
  TRACK 141 AUDIO
    TITLE "0:"
    INDEX 01 03:04:01
  TRACK 142 AUDIO
    TITLE "18:cjc160_0803"
    INDEX 01 03:05:04
  TRACK 143 AUDIO
    TITLE "0:"
    INDEX 01 03:06:08
  TRACK 144 AUDIO
    TITLE "19:cjc160_0804"
    INDEX 01 03:06:45
  TRACK 145 AUDIO
    TITLE "0:"
    INDEX 01 03:09:02
  TRACK 146 AUDIO
    TITLE "18:cjc160_0805"
    INDEX 01 03:10:04
  TRACK 147 AUDIO
    TITLE "0:"
    INDEX 01 03:11:28
  TRACK 148 AUDIO
    TITLE "19:cjc160_0806"
    INDEX 01 03:11:66
  TRACK 149 AUDIO
    TITLE "0:"
    INDEX 01 03:15:07
  TRACK 150 AUDIO
    TITLE "18:cjc160_0807"
    INDEX 01 03:16:12
  TRACK 151 AUDIO
    TITLE "0:"
    INDEX 01 03:17:41
  TRACK 152 AUDIO
    TITLE "19:cjc160_0808"
    INDEX 01 03:18:05
  TRACK 153 AUDIO
    TITLE "0:"
    INDEX 01 03:20:41
  TRACK 154 AUDIO
    TITLE "18:cjc160_0809"
    INDEX 01 03:21:43
  TRACK 155 AUDIO
    TITLE "0:"
    INDEX 01 03:22:73
  TRACK 156 AUDIO
    TITLE "19:cjc160_0810"
    INDEX 01 03:23:40
  TRACK 157 AUDIO
    TITLE "0:"
    INDEX 01 03:25:50
  TRACK 158 AUDIO
    TITLE "18:cjc160_0811"
    INDEX 01 03:26:50
  TRACK 159 AUDIO
    TITLE "0:"
    INDEX 01 03:27:61
  TRACK 160 AUDIO
    TITLE "19:cjc160_0812"
    INDEX 01 03:28:31
  TRACK 161 AUDIO
    TITLE "0:"
    INDEX 01 03:30:71
  TRACK 162 AUDIO
    TITLE "18:cjc160_0813"
    INDEX 01 03:31:72
  TRACK 163 AUDIO
    TITLE "0:"
    INDEX 01 03:33:18
  TRACK 164 AUDIO
    TITLE "19:cjc160_0814"
    INDEX 01 03:33:56
  TRACK 165 AUDIO
    TITLE "0:"
    INDEX 01 03:36:15
  TRACK 166 AUDIO
    TITLE "18:cjc160_0815"
    INDEX 01 03:37:16
  TRACK 167 AUDIO
    TITLE "0:"
    INDEX 01 03:38:45
  TRACK 168 AUDIO
    TITLE "19:cjc160_0816"
    INDEX 01 03:39:07
  TRACK 169 AUDIO
    TITLE "0:"
    INDEX 01 03:41:57
  TRACK 170 AUDIO
    TITLE "18:cjc160_0817"
    INDEX 01 03:42:56
  TRACK 171 AUDIO
    TITLE "0:"
    INDEX 01 03:44:02
  TRACK 172 AUDIO
    TITLE "19:cjc160_0818"
    INDEX 01 03:44:40
  TRACK 173 AUDIO
    TITLE "0:"
    INDEX 01 03:46:43
  TRACK 174 AUDIO
    TITLE "18:cjc160_0819"
    INDEX 01 03:47:42
  TRACK 175 AUDIO
    TITLE "0:"
    INDEX 01 03:48:55
  TRACK 176 AUDIO
    TITLE "19:cjc160_0820"
    INDEX 01 03:49:17
  TRACK 177 AUDIO
    TITLE "0:"
    INDEX 01 03:51:22
  TRACK 178 AUDIO
    TITLE "18:cjc160_0821"
    INDEX 01 03:52:24
  TRACK 179 AUDIO
    TITLE "0:"
    INDEX 01 03:53:54
  TRACK 180 AUDIO
    TITLE "19:cjc160_0822"
    INDEX 01 03:54:19
  TRACK 181 AUDIO
    TITLE "0:"
    INDEX 01 03:56:53
  TRACK 182 AUDIO
    TITLE "18:cjc160_0823"
    INDEX 01 03:57:54
  TRACK 183 AUDIO
    TITLE "0:"
    INDEX 01 03:59:65
  TRACK 184 AUDIO
    TITLE "19:cjc160_0824"
    INDEX 01 04:00:31
  TRACK 185 AUDIO
    TITLE "0:"
    INDEX 01 04:02:18
  TRACK 186 AUDIO
    TITLE "18:cjc160_0825"
    INDEX 01 04:03:23
  TRACK 187 AUDIO
    TITLE "0:"
    INDEX 01 04:04:48
  TRACK 188 AUDIO
    TITLE "19:cjc160_0826"
    INDEX 01 04:05:14
  TRACK 189 AUDIO
    TITLE "0:"
    INDEX 01 04:06:75
  TRACK 190 AUDIO
    TITLE "18:cjc160_0827"
    INDEX 01 04:08:01
  TRACK 191 AUDIO
    TITLE "0:"
    INDEX 01 04:09:53
  TRACK 192 AUDIO
    TITLE "19:cjc160_0828"
    INDEX 01 04:10:16
  TRACK 193 AUDIO
    TITLE "0:"
    INDEX 01 04:12:50
  TRACK 194 AUDIO
    TITLE "18:cjc160_0829"
    INDEX 01 04:13:51
  TRACK 195 AUDIO
    TITLE "0:"
    INDEX 01 04:14:68
  TRACK 196 AUDIO
    TITLE "19:cjc160_0830"
    INDEX 01 04:15:32
  TRACK 197 AUDIO
    TITLE "0:"
    INDEX 01 04:17:72
  TRACK 198 AUDIO
    TITLE "18:cjc160_0831"
    INDEX 01 04:18:72
  TRACK 199 AUDIO
    TITLE "0:"
    INDEX 01 04:20:24
  TRACK 200 AUDIO
    TITLE "19:cjc160_0832"
    INDEX 01 04:20:65
  TRACK 201 AUDIO
    TITLE "0:"
    INDEX 01 04:23:18
  TRACK 202 AUDIO
    TITLE "18:cjc160_0833"
    INDEX 01 04:24:24
  TRACK 203 AUDIO
    TITLE "0:"
    INDEX 01 04:26:09
  TRACK 204 AUDIO
    TITLE "19:cjc160_0834"
    INDEX 01 04:26:50
  TRACK 205 AUDIO
    TITLE "0:"
    INDEX 01 04:29:42
  TRACK 206 AUDIO
    TITLE "18:cjc160_0835"
    INDEX 01 04:30:42
  TRACK 207 AUDIO
    TITLE "0:"
    INDEX 01 04:32:03
  TRACK 208 AUDIO
    TITLE "19:cjc160_0836"
    INDEX 01 04:32:41
  TRACK 209 AUDIO
    TITLE "0:"
    INDEX 01 04:35:21
  TRACK 210 AUDIO
    TITLE "18:cjc160_0837"
    INDEX 01 04:36:21
  TRACK 211 AUDIO
    TITLE "0:"
    INDEX 01 04:37:61
  TRACK 212 AUDIO
    TITLE "19:cjc160_0838"
    INDEX 01 04:38:28
  TRACK 213 AUDIO
    TITLE "0:"
    INDEX 01 04:42:06
  TRACK 214 AUDIO
    TITLE "18:cjc160_0839"
    INDEX 01 04:43:09
  TRACK 215 AUDIO
    TITLE "0:"
    INDEX 01 04:44:28
  TRACK 216 AUDIO
    TITLE "19:cjc160_0840"
    INDEX 01 04:44:65
  TRACK 217 AUDIO
    TITLE "0:"
    INDEX 01 04:47:27
  TRACK 218 AUDIO
    TITLE "18:cjc160_0841"
    INDEX 01 04:48:30
  TRACK 219 AUDIO
    TITLE "0:"
    INDEX 01 04:49:69
  TRACK 220 AUDIO
    TITLE "19:cjc160_0842"
    INDEX 01 04:50:29
  TRACK 221 AUDIO
    TITLE "0:"
    INDEX 01 04:52:45
  TRACK 222 AUDIO
    TITLE "18:cjc160_0843"
    INDEX 01 04:53:45
  TRACK 223 AUDIO
    TITLE "0:"
    INDEX 01 04:55:04
  TRACK 224 AUDIO
    TITLE "19:cjc160_0844"
    INDEX 01 04:55:42
  TRACK 225 AUDIO
    TITLE "0:"
    INDEX 01 04:57:70
  TRACK 226 AUDIO
    TITLE "18:cjc160_0845"
    INDEX 01 04:58:69
  TRACK 227 AUDIO
    TITLE "0:"
    INDEX 01 05:00:51
  TRACK 228 AUDIO
    TITLE "19:cjc160_0846"
    INDEX 01 05:01:13
  TRACK 229 AUDIO
    TITLE "0:"
    INDEX 01 05:05:22
  TRACK 230 AUDIO
    TITLE "18:cjc160_0847"
    INDEX 01 05:06:26
  TRACK 231 AUDIO
    TITLE "0:"
    INDEX 01 05:07:29
  TRACK 232 AUDIO
    TITLE "19:cjc160_0848"
    INDEX 01 05:07:68
  TRACK 233 AUDIO
    TITLE "0:"
    INDEX 01 05:09:46
  TRACK 234 AUDIO
    TITLE "18:cjc160_0849"
    INDEX 01 05:10:47
  TRACK 235 AUDIO
    TITLE "0:"
    INDEX 01 05:12:19
  TRACK 236 AUDIO
    TITLE "19:cjc160_0850"
    INDEX 01 05:12:64
  TRACK 237 AUDIO
    TITLE "0:"
    INDEX 01 05:15:37
  TRACK 238 AUDIO
    TITLE "18:cjc160_0851"
    INDEX 01 05:16:38
  TRACK 239 AUDIO
    TITLE "0:"
    INDEX 01 05:17:45
  TRACK 240 AUDIO
    TITLE "19:cjc160_0852"
    INDEX 01 05:18:07
  TRACK 241 AUDIO
    TITLE "0:"
    INDEX 01 05:20:73
  TRACK 242 AUDIO
    TITLE "18:cjc160_0853"
    INDEX 01 05:21:72
  TRACK 243 AUDIO
    TITLE "0:"
    INDEX 01 05:23:13
  TRACK 244 AUDIO
    TITLE "19:cjc160_0854"
    INDEX 01 05:23:52
  TRACK 245 AUDIO
    TITLE "0:"
    INDEX 01 05:26:17
  TRACK 246 AUDIO
    TITLE "18:cjc160_0855"
    INDEX 01 05:27:18
  TRACK 247 AUDIO
    TITLE "0:"
    INDEX 01 05:28:47
  TRACK 248 AUDIO
    TITLE "19:cjc160_0856"
    INDEX 01 05:29:09
  TRACK 249 AUDIO
    TITLE "0:"
    INDEX 01 05:31:55
  TRACK 250 AUDIO
    TITLE "18:cjc160_0857"
    INDEX 01 05:32:59
  TRACK 251 AUDIO
    TITLE "0:"
    INDEX 01 05:34:01
  TRACK 252 AUDIO
    TITLE "19:cjc160_0858"
    INDEX 01 05:34:40
  TRACK 253 AUDIO
    TITLE "0:"
    INDEX 01 05:36:33
  TRACK 254 AUDIO
    TITLE "18:cjc160_0859"
    INDEX 01 05:37:32
  TRACK 255 AUDIO
    TITLE "0:"
    INDEX 01 05:38:57
  TRACK 256 AUDIO
    TITLE "19:cjc160_0860"
    INDEX 01 05:39:19
  TRACK 257 AUDIO
    TITLE "0:"
    INDEX 01 05:41:50
  TRACK 258 AUDIO
    TITLE "18:cjc160_0861"
    INDEX 01 05:42:49
  TRACK 259 AUDIO
    TITLE "0:"
    INDEX 01 05:44:66
  TRACK 260 AUDIO
    TITLE "19:cjc160_0862"
    INDEX 01 05:45:30
  TRACK 261 AUDIO
    TITLE "0:"
    INDEX 01 05:47:68
  TRACK 262 AUDIO
    TITLE "18:cjc160_0863"
    INDEX 01 05:48:67
  TRACK 263 AUDIO
    TITLE "0:"
    INDEX 01 05:50:06
  TRACK 264 AUDIO
    TITLE "19:cjc160_0864"
    INDEX 01 05:50:43
  TRACK 265 AUDIO
    TITLE "0:"
    INDEX 01 05:53:20
  TRACK 266 AUDIO
    TITLE "18:cjc160_0865"
    INDEX 01 05:54:21
  TRACK 267 AUDIO
    TITLE "0:"
    INDEX 01 05:55:16
  TRACK 268 AUDIO
    TITLE "19:cjc160_0866"
    INDEX 01 05:55:60
  TRACK 269 AUDIO
    TITLE "0:"
    INDEX 01 05:57:49
  TRACK 270 AUDIO
    TITLE "18:cjc160_0867"
    INDEX 01 05:58:50
  TRACK 271 AUDIO
    TITLE "0:"
    INDEX 01 06:00:04
  TRACK 272 AUDIO
    TITLE "19:cjc160_0868"
    INDEX 01 06:00:45
  TRACK 273 AUDIO
    TITLE "0:"
    INDEX 01 06:03:02
  TRACK 274 AUDIO
    TITLE "18:cjc160_0869"
    INDEX 01 06:04:02
  TRACK 275 AUDIO
    TITLE "0:"
    INDEX 01 06:05:38
  TRACK 276 AUDIO
    TITLE "19:cjc160_0870"
    INDEX 01 06:06:05
  TRACK 277 AUDIO
    TITLE "0:"
    INDEX 01 06:08:74
  TRACK 278 AUDIO
    TITLE "18:cjc160_0871"
    INDEX 01 06:09:75
  TRACK 279 AUDIO
    TITLE "0:"
    INDEX 01 06:11:21
  TRACK 280 AUDIO
    TITLE "19:cjc160_0872"
    INDEX 01 06:11:57
  TRACK 281 AUDIO
    TITLE "0:"
    INDEX 01 06:14:18
  TRACK 282 AUDIO
    TITLE "18:cjc160_0873"
    INDEX 01 06:15:17
  TRACK 283 AUDIO
    TITLE "0:"
    INDEX 01 06:17:53
  TRACK 284 AUDIO
    TITLE "19:cjc160_0874"
    INDEX 01 06:18:16
  TRACK 285 AUDIO
    TITLE "0:"
    INDEX 01 06:22:15
  TRACK 286 AUDIO
    TITLE "18:cjc160_0875"
    INDEX 01 06:23:15
  TRACK 287 AUDIO
    TITLE "0:"
    INDEX 01 06:25:35
  TRACK 288 AUDIO
    TITLE "19:cjc160_0876"
    INDEX 01 06:25:72
  TRACK 289 AUDIO
    TITLE "0:"
    INDEX 01 06:27:60
  TRACK 290 AUDIO
    TITLE "18:cjc160_0877"
    INDEX 01 06:28:59
  TRACK 291 AUDIO
    TITLE "0:"
    INDEX 01 06:30:17
  TRACK 292 AUDIO
    TITLE "19:cjc160_0878"
    INDEX 01 06:30:48
  TRACK 293 AUDIO
    TITLE "0:"
    INDEX 01 06:33:41
  TRACK 294 AUDIO
    TITLE "18:cjc160_0879"
    INDEX 01 06:34:44
  TRACK 295 AUDIO
    TITLE "0:"
    INDEX 01 06:36:08
  TRACK 296 AUDIO
    TITLE "19:cjc160_0880"
    INDEX 01 06:36:45
  TRACK 297 AUDIO
    TITLE "0:"
    INDEX 01 06:38:54
  TRACK 298 AUDIO
    TITLE "18:cjc160_0881"
    INDEX 01 06:39:53
  TRACK 299 AUDIO
    TITLE "0:"
    INDEX 01 06:41:01
  TRACK 300 AUDIO
    TITLE "19:cjc160_0882"
    INDEX 01 06:41:38
  TRACK 301 AUDIO
    TITLE "0:"
    INDEX 01 06:43:70
  TRACK 302 AUDIO
    TITLE "18:cjc160_0883"
    INDEX 01 06:45:07
  TRACK 303 AUDIO
    TITLE "0:"
    INDEX 01 06:46:28
  TRACK 304 AUDIO
    TITLE "19:cjc160_0884"
    INDEX 01 06:46:57
  TRACK 305 AUDIO
    TITLE "0:"
    INDEX 01 06:49:36
  TRACK 306 AUDIO
    TITLE "18:cjc160_0885"
    INDEX 01 06:50:35
  TRACK 307 AUDIO
    TITLE "0:"
    INDEX 01 06:51:64
  TRACK 308 AUDIO
    TITLE "19:cjc160_0886"
    INDEX 01 06:52:24
  TRACK 309 AUDIO
    TITLE "0:"
    INDEX 01 06:54:15
  TRACK 310 AUDIO
    TITLE "18:cjc160_0887"
    INDEX 01 06:55:09
  TRACK 311 AUDIO
    TITLE "0:"
    INDEX 01 06:56:20
  TRACK 312 AUDIO
    TITLE "19:cjc160_0888"
    INDEX 01 06:56:57
  TRACK 313 AUDIO
    TITLE "0:"
    INDEX 01 06:58:39
  TRACK 314 AUDIO
    TITLE "18:cjc160_0889"
    INDEX 01 06:59:40
  TRACK 315 AUDIO
    TITLE "0:"
    INDEX 01 07:01:43
  TRACK 316 AUDIO
    TITLE "19:cjc160_0890"
    INDEX 01 07:02:15
  TRACK 317 AUDIO
    TITLE "0:"
    INDEX 01 07:05:31
  TRACK 318 AUDIO
    TITLE "18:cjc160_0891"
    INDEX 01 07:06:32
  TRACK 319 AUDIO
    TITLE "0:"
    INDEX 01 07:08:21
  TRACK 320 AUDIO
    TITLE "19:cjc160_0892"
    INDEX 01 07:08:57
  TRACK 321 AUDIO
    TITLE "0:"
    INDEX 01 07:12:03
  TRACK 322 AUDIO
    TITLE "18:cjc160_0893"
    INDEX 01 07:13:05
  TRACK 323 AUDIO
    TITLE "0:"
    INDEX 01 07:14:45
  TRACK 324 AUDIO
    TITLE "19:cjc160_0894"
    INDEX 01 07:15:10
  TRACK 325 AUDIO
    TITLE "0:"
    INDEX 01 07:17:10
  TRACK 326 AUDIO
    TITLE "18:cjc160_0895"
    INDEX 01 07:18:12
  TRACK 327 AUDIO
    TITLE "0:"
    INDEX 01 07:19:29
  TRACK 328 AUDIO
    TITLE "19:cjc160_0896"
    INDEX 01 07:19:68
  TRACK 329 AUDIO
    TITLE "0:"
    INDEX 01 07:22:02
  TRACK 330 AUDIO
    TITLE "18:cjc160_0897"
    INDEX 01 07:23:03
  TRACK 331 AUDIO
    TITLE "0:"
    INDEX 01 07:24:44
  TRACK 332 AUDIO
    TITLE "19:cjc160_0898"
    INDEX 01 07:25:08
  TRACK 333 AUDIO
    TITLE "0:"
    INDEX 01 07:28:10
  TRACK 334 AUDIO
    TITLE "18:cjc160_0899"
    INDEX 01 07:29:14
  TRACK 335 AUDIO
    TITLE "0:"
    INDEX 01 07:30:72
  TRACK 336 AUDIO
    TITLE "19:cjc160_0900"
    INDEX 01 07:31:34
  TRACK 337 AUDIO
    TITLE "0:"
    INDEX 01 07:34:21
  TRACK 338 AUDIO
    TITLE "18:cjc160_0901"
    INDEX 01 07:35:20
  TRACK 339 AUDIO
    TITLE "0:"
    INDEX 01 07:36:63
  TRACK 340 AUDIO
    TITLE "19:cjc160_0902"
    INDEX 01 07:37:25
  TRACK 341 AUDIO
    TITLE "0:"
    INDEX 01 07:40:64
  TRACK 342 AUDIO
    TITLE "18:cjc160_0903"
    INDEX 01 07:41:64
  TRACK 343 AUDIO
    TITLE "0:"
    INDEX 01 07:43:10
  TRACK 344 AUDIO
    TITLE "19:cjc160_0904"
    INDEX 01 07:43:47
  TRACK 345 AUDIO
    TITLE "0:"
    INDEX 01 07:46:55
  TRACK 346 AUDIO
    TITLE "18:cjc160_0905"
    INDEX 01 07:47:57
  TRACK 347 AUDIO
    TITLE "0:"
    INDEX 01 07:49:18
  TRACK 348 AUDIO
    TITLE "19:cjc160_0906"
    INDEX 01 07:49:57
  TRACK 349 AUDIO
    TITLE "0:"
    INDEX 01 07:51:74
  TRACK 350 AUDIO
    TITLE "18:cjc160_0907"
    INDEX 01 07:52:73
  TRACK 351 AUDIO
    TITLE "0:"
    INDEX 01 07:54:27
  TRACK 352 AUDIO
    TITLE "19:cjc160_0908"
    INDEX 01 07:54:66
  TRACK 353 AUDIO
    TITLE "0:"
    INDEX 01 07:57:45
  TRACK 354 AUDIO
    TITLE "18:cjc160_0909"
    INDEX 01 07:58:45
  TRACK 355 AUDIO
    TITLE "0:"
    INDEX 01 07:59:62
  TRACK 356 AUDIO
    TITLE "19:cjc160_0910"
    INDEX 01 08:00:24
  TRACK 357 AUDIO
    TITLE "0:"
    INDEX 01 08:02:19
  TRACK 358 AUDIO
    TITLE "18:cjc160_0911"
    INDEX 01 08:03:22
  TRACK 359 AUDIO
    TITLE "0:"
    INDEX 01 08:04:36
  TRACK 360 AUDIO
    TITLE "19:cjc160_0912"
    INDEX 01 08:04:73
  TRACK 361 AUDIO
    TITLE "0:"
    INDEX 01 08:07:42
  TRACK 362 AUDIO
    TITLE "18:cjc160_0913"
    INDEX 01 08:08:43
  TRACK 363 AUDIO
    TITLE "0:"
    INDEX 01 08:10:03
  TRACK 364 AUDIO
    TITLE "19:cjc160_0914"
    INDEX 01 08:10:40
  TRACK 365 AUDIO
    TITLE "0:"
    INDEX 01 08:13:33
  TRACK 366 AUDIO
    TITLE "18:cjc160_0915"
    INDEX 01 08:14:36
  TRACK 367 AUDIO
    TITLE "0:"
    INDEX 01 08:15:63
  TRACK 368 AUDIO
    TITLE "19:cjc160_0916"
    INDEX 01 08:16:27
  TRACK 369 AUDIO
    TITLE "0:"
    INDEX 01 08:19:72
  TRACK 370 AUDIO
    TITLE "18:cjc160_0917"
    INDEX 01 08:20:70
  TRACK 371 AUDIO
    TITLE "0:"
    INDEX 01 08:22:30
  TRACK 372 AUDIO
    TITLE "19:cjc160_0918"
    INDEX 01 08:22:67
  TRACK 373 AUDIO
    TITLE "0:"
    INDEX 01 08:26:63
  TRACK 374 AUDIO
    TITLE "18:cjc160_0919"
    INDEX 01 08:27:66
  TRACK 375 AUDIO
    TITLE "0:"
    INDEX 01 08:29:41
  TRACK 376 AUDIO
    TITLE "19:cjc160_0920"
    INDEX 01 08:30:06
  TRACK 377 AUDIO
    TITLE "0:"
    INDEX 01 08:32:38
  TRACK 378 AUDIO
    TITLE "18:cjc160_0921"
    INDEX 01 08:33:37
  TRACK 379 AUDIO
    TITLE "0:"
    INDEX 01 08:34:54
  TRACK 380 AUDIO
    TITLE "19:cjc160_0922"
    INDEX 01 08:35:18
  TRACK 381 AUDIO
    TITLE "0:"
    INDEX 01 08:37:49
  TRACK 382 AUDIO
    TITLE "18:cjc160_0923"
    INDEX 01 08:38:50
  TRACK 383 AUDIO
    TITLE "0:"
    INDEX 01 08:40:27
  TRACK 384 AUDIO
    TITLE "19:cjc160_0924"
    INDEX 01 08:40:65
  TRACK 385 AUDIO
    TITLE "0:"
    INDEX 01 08:43:65
  TRACK 386 AUDIO
    TITLE "18:cjc160_0925"
    INDEX 01 08:44:68
  TRACK 387 AUDIO
    TITLE "0:"
    INDEX 01 08:46:10
  TRACK 388 AUDIO
    TITLE "19:cjc160_0926"
    INDEX 01 08:46:48
  TRACK 389 AUDIO
    TITLE "0:"
    INDEX 01 08:48:23
  TRACK 390 AUDIO
    TITLE "18:cjc160_0927"
    INDEX 01 08:49:22
  TRACK 391 AUDIO
    TITLE "0:"
    INDEX 01 08:50:65
  TRACK 392 AUDIO
    TITLE "19:cjc160_0928"
    INDEX 01 08:51:27
  TRACK 393 AUDIO
    TITLE "0:"
    INDEX 01 08:53:59
  TRACK 394 AUDIO
    TITLE "18:cjc160_0929"
    INDEX 01 08:54:61
  TRACK 395 AUDIO
    TITLE "0:"
    INDEX 01 08:56:09
  TRACK 396 AUDIO
    TITLE "19:cjc160_0930"
    INDEX 01 08:56:50
  TRACK 397 AUDIO
    TITLE "0:"
    INDEX 01 08:58:72
  TRACK 398 AUDIO
    TITLE "18:cjc160_0931"
    INDEX 01 08:59:72
  TRACK 399 AUDIO
    TITLE "0:"
    INDEX 01 09:01:45
  TRACK 400 AUDIO
    TITLE "19:cjc160_0932"
    INDEX 01 09:02:07
  TRACK 401 AUDIO
    TITLE "0:"
    INDEX 01 09:05:10
